<svg width="1920" height="400" viewBox="0 0 1920 400" fill="none" xmlns="http://www.w3.org/2000/svg">
<g opacity="0.15">
<path fill-rule="evenodd" clip-rule="evenodd" d="M-0.65918 241.392L110.638 271.346L223.791 177.961L341.537 145.364L450.096 33.4777L561.394 5.28589L674.546 86.3374L785.844 130.387L900.851 96.9093L1012.15 86.3374L1125.3 121.577L1239.58 85.4564L1349.75 146.245L1462.9 163.865L1576.06 96.9093H1687.35L1800.51 86.3374L1920.5 14.5V208.5V389.5L-0.65918 304.824" fill="url(#paint0_linear_71_2693)" fill-opacity="0.1"/>
<path d="M-0.65918 244.916L114.348 271.346L223.791 177.961L341.537 145.364L448.241 31.7157L561.394 5.28589L674.546 86.3374L785.844 130.387L898.996 96.9093L1012.15 86.3374L1125.3 119.815L1239.58 85.4564L1349.75 146.245L1462.9 163.865L1576.06 96.9093H1689.21L1800.51 86.3374L1913.66 17.6198" stroke="#990505" stroke-width="2"/>
<path d="M12 245C12 248.25 9.15595 251 5.5 251C1.84405 251 -1 248.25 -1 245C-1 241.75 1.84405 239 5.5 239C9.15595 239 12 241.75 12 245Z" fill="white" stroke="#990505" stroke-width="2"/>
<path d="M124 271C124 274.314 121.314 277 118 277C114.686 277 112 274.314 112 271C112 267.686 114.686 265 118 265C121.314 265 124 267.686 124 271Z" fill="white" stroke="#990505" stroke-width="2"/>
<path d="M232 179.5C232 183.09 229.09 186 225.5 186C221.91 186 219 183.09 219 179.5C219 175.91 221.91 173 225.5 173C229.09 173 232 175.91 232 179.5Z" fill="white" stroke="#990505" stroke-width="2"/>
<path d="M457 34C457 37.866 453.866 41 450 41C446.134 41 443 37.866 443 34C443 30.134 446.134 27 450 27C453.866 27 457 30.134 457 34Z" fill="white" stroke="#990505" stroke-width="2"/>
<path d="M348 145.5C348 149.09 345.09 152 341.5 152C337.91 152 335 149.09 335 145.5C335 141.91 337.91 139 341.5 139C345.09 139 348 141.91 348 145.5Z" fill="white" stroke="#990505" stroke-width="2"/>
<path d="M568.945 7.04796C568.945 10.3375 566.112 13.0959 562.502 13.0959C558.891 13.0959 556.059 10.3375 556.059 7.04796C556.059 3.75844 558.891 1 562.502 1C566.112 1 568.945 3.75844 568.945 7.04796Z" fill="white" stroke="#990505" stroke-width="2"/>
<path d="M681.764 86.3376C681.764 89.6272 678.932 92.3856 675.321 92.3856C671.711 92.3856 668.878 89.6272 668.878 86.3376C668.878 83.0481 671.711 80.2897 675.321 80.2897C678.932 80.2897 681.764 83.0481 681.764 86.3376Z" fill="white" stroke="#990505" stroke-width="2"/>
<path d="M794.644 128.625C794.644 131.915 791.811 134.673 788.201 134.673C784.591 134.673 781.758 131.915 781.758 128.625C781.758 125.336 784.591 122.577 788.201 122.577C791.811 122.577 794.644 125.336 794.644 128.625Z" fill="white" stroke="#990505" stroke-width="2"/>
<path d="M907.577 97.3613C907.577 100.951 904.667 103.861 901.077 103.861C897.488 103.861 894.577 100.951 894.577 97.3613C894.577 93.7715 897.488 90.8613 901.077 90.8613C904.667 90.8613 907.577 93.7715 907.577 97.3613Z" fill="white" stroke="#990505" stroke-width="2"/>
<path d="M1021.38 87.2897C1021.38 91.1557 1018.24 94.2897 1014.38 94.2897C1010.51 94.2897 1007.38 91.1557 1007.38 87.2897C1007.38 83.4237 1010.51 80.2897 1014.38 80.2897C1018.24 80.2897 1021.38 83.4237 1021.38 87.2897Z" fill="white" stroke="#990505" stroke-width="2"/>
<path d="M1132 118C1132 121.314 1129.31 124 1126 124C1122.69 124 1120 121.314 1120 118C1120 114.686 1122.69 112 1126 112C1129.31 112 1132 114.686 1132 118Z" fill="white" stroke="#990505" stroke-width="2"/>
<path d="M1245 86C1245 89.3137 1242.31 92 1239 92C1235.69 92 1233 89.3137 1233 86C1233 82.6863 1235.69 80 1239 80C1242.31 80 1245 82.6863 1245 86Z" fill="white" stroke="#990505" stroke-width="2"/>
<path d="M1359 147C1359 150.314 1356.31 153 1353 153C1349.69 153 1347 150.314 1347 147C1347 143.686 1349.69 141 1353 141C1356.31 141 1359 143.686 1359 147Z" fill="white" stroke="#990505" stroke-width="2"/>
<path d="M1466 162.5C1466 165.538 1463.54 168 1460.5 168C1457.46 168 1455 165.538 1455 162.5C1455 159.462 1457.46 157 1460.5 157C1463.54 157 1466 159.462 1466 162.5Z" fill="white" stroke="#990505" stroke-width="2"/>
<path d="M1582 97C1582 100.314 1579.31 103 1576 103C1572.69 103 1570 100.314 1570 97C1570 93.6863 1572.69 91 1576 91C1579.31 91 1582 93.6863 1582 97Z" fill="white" stroke="#990505" stroke-width="2"/>
<path d="M1698 95C1698 98.3137 1695.31 101 1692 101C1688.69 101 1686 98.3137 1686 95C1686 91.6863 1688.69 89 1692 89C1695.31 89 1698 91.6863 1698 95Z" fill="white" stroke="#990505" stroke-width="2"/>
<path d="M1808 84C1808 87.866 1804.87 91 1801 91C1797.13 91 1794 87.866 1794 84C1794 80.134 1797.13 77 1801 77C1804.87 77 1808 80.134 1808 84Z" fill="white" stroke="#990505" stroke-width="2"/>
<path d="M1919 15.5C1919 18.5376 1916.54 21 1913.5 21C1910.46 21 1908 18.5376 1908 15.5C1908 12.4624 1910.46 10 1913.5 10C1916.54 10 1919 12.4624 1919 15.5Z" fill="white" stroke="#990505" stroke-width="2"/>
</g>
<defs>
<linearGradient id="paint0_linear_71_2693" x1="127.482" y1="5.28589" x2="127.482" y2="347.181" gradientUnits="userSpaceOnUse">
<stop stop-color="#F31818"/>
<stop offset="1" stop-color="#5D7EF7" stop-opacity="0.01"/>
</linearGradient>
</defs>
</svg>
