<svg width="1920" height="407" viewBox="0 0 1920 407" fill="none" xmlns="http://www.w3.org/2000/svg">
<g opacity="0.15" clip-path="url(#clip0_71_2672)">
<path fill-rule="evenodd" clip-rule="evenodd" d="M-0.0180969 275.07L110.75 216.747L225.274 251.741L338.859 147.656L449.627 18.4471L564.151 47.1601L673.98 135.991L788.504 191.623L901.15 132.402L1010.04 109.97L1125.5 4.98779L1238.15 86.6406L1352.67 216.747L1463.44 258.022L1578.9 140.029L1688.4 22.9335L1799.5 47.1601L1914.03 59.7221V407H-0.0180969" fill="url(#paint0_linear_71_2672)" fill-opacity="0.1"/>
<path d="M2.97104 274.326L114.674 216.986L228.98 251.955L342.349 147.945L452.906 18.8295L567.212 47.5219L676.833 136.289L791.139 191.88L903.571 132.702L1012.25 110.286L1127.5 5.38L1239.93 86.9738L1354.24 216.986L1464.79 258.231L1580.04 140.324L1689.33 23.3127L1800.21 47.5219L1914.52 60.0748" stroke="#75ACFE" stroke-width="2"/>
<path d="M10 273.5C10 277.09 7.08985 280 3.5 280C-0.0898511 280 -3 277.09 -3 273.5C-3 269.91 -0.0898511 267 3.5 267C7.08985 267 10 269.91 10 273.5Z" fill="white" stroke="#2B69DD" stroke-width="2"/>
<path d="M123 216.5C123 220.09 120.09 223 116.5 223C112.91 223 110 220.09 110 216.5C110 212.91 112.91 210 116.5 210C120.09 210 123 212.91 123 216.5Z" fill="white" stroke="#2B69DD" stroke-width="2"/>
<path d="M237 250.5C237 254.09 234.09 257 230.5 257C226.91 257 224 254.09 224 250.5C224 246.91 226.91 244 230.5 244C234.09 244 237 246.91 237 250.5Z" fill="white" stroke="#2B69DD" stroke-width="2"/>
<path d="M461 19.5C461 23.0899 458.09 26 454.5 26C450.91 26 448 23.0899 448 19.5C448 15.9101 450.91 13 454.5 13C458.09 13 461 15.9101 461 19.5Z" fill="white" stroke="#2B69DD" stroke-width="2"/>
<path d="M347 151.5C347 155.09 344.09 158 340.5 158C336.91 158 334 155.09 334 151.5C334 147.91 336.91 145 340.5 145C344.09 145 347 147.91 347 151.5Z" fill="white" stroke="#2B69DD" stroke-width="2"/>
<path d="M570.908 46.9519C570.908 50.5418 567.998 53.4519 564.408 53.4519C560.818 53.4519 557.908 50.5418 557.908 46.9519C557.908 43.3621 560.818 40.4519 564.408 40.4519C567.998 40.4519 570.908 43.3621 570.908 46.9519Z" fill="white" stroke="#2B69DD" stroke-width="2"/>
<path d="M683 133.5C683 137.09 680.09 140 676.5 140C672.91 140 670 137.09 670 133.5C670 129.91 672.91 127 676.5 127C680.09 127 683 129.91 683 133.5Z" fill="white" stroke="#2B69DD" stroke-width="2"/>
<path d="M797 189.5C797 193.09 794.09 196 790.5 196C786.91 196 784 193.09 784 189.5C784 185.91 786.91 183 790.5 183C794.09 183 797 185.91 797 189.5Z" fill="white" stroke="#2B69DD" stroke-width="2"/>
<path d="M909.43 133.029C909.43 136.619 906.52 139.529 902.93 139.529C899.34 139.529 896.43 136.619 896.43 133.029C896.43 129.439 899.34 126.529 902.93 126.529C906.52 126.529 909.43 129.439 909.43 133.029Z" fill="white" stroke="#2B69DD" stroke-width="2"/>
<path d="M1017 109.5C1017 113.09 1014.09 116 1010.5 116C1006.91 116 1004 113.09 1004 109.5C1004 105.91 1006.91 103 1010.5 103C1014.09 103 1017 105.91 1017 109.5Z" fill="white" stroke="#2B69DD" stroke-width="2"/>
<path d="M1133 7.5C1133 11.0899 1130.09 14 1126.5 14C1122.91 14 1120 11.0899 1120 7.5C1120 3.91015 1122.91 1 1126.5 1C1130.09 1 1133 3.91015 1133 7.5Z" fill="white" stroke="#2B69DD" stroke-width="2"/>
<path d="M1247.95 88.1973C1247.95 91.7871 1245.04 94.6973 1241.45 94.6973C1237.86 94.6973 1234.95 91.7871 1234.95 88.1973C1234.95 84.6074 1237.86 81.6973 1241.45 81.6973C1245.04 81.6973 1247.95 84.6074 1247.95 88.1973Z" fill="white" stroke="#2B69DD" stroke-width="2"/>
<path d="M1358.91 215.519C1358.91 219.109 1356 222.019 1352.41 222.019C1348.82 222.019 1345.91 219.109 1345.91 215.519C1345.91 211.929 1348.82 209.019 1352.41 209.019C1356 209.019 1358.91 211.929 1358.91 215.519Z" fill="white" stroke="#2B69DD" stroke-width="2"/>
<path d="M1468 256.5C1468 260.09 1465.09 263 1461.5 263C1457.91 263 1455 260.09 1455 256.5C1455 252.91 1457.91 250 1461.5 250C1465.09 250 1468 252.91 1468 256.5Z" fill="white" stroke="#2B69DD" stroke-width="2"/>
<path d="M1585 137.5C1585 141.09 1582.09 144 1578.5 144C1574.91 144 1572 141.09 1572 137.5C1572 133.91 1574.91 131 1578.5 131C1582.09 131 1585 133.91 1585 137.5Z" fill="white" stroke="#2B69DD" stroke-width="2"/>
<path d="M1692 21.5C1692 25.0899 1689.09 28 1685.5 28C1681.91 28 1679 25.0899 1679 21.5C1679 17.9101 1681.91 15 1685.5 15C1689.09 15 1692 17.9101 1692 21.5Z" fill="white" stroke="#2B69DD" stroke-width="2"/>
<path d="M1808.39 46.9519C1808.39 50.5418 1805.48 53.4519 1801.89 53.4519C1798.3 53.4519 1795.39 50.5418 1795.39 46.9519C1795.39 43.3621 1798.3 40.4519 1801.89 40.4519C1805.48 40.4519 1808.39 43.3621 1808.39 46.9519Z" fill="white" stroke="#2B69DD" stroke-width="2"/>
<path d="M1923.11 61.2982C1923.11 64.8881 1920.2 67.7982 1916.61 67.7982C1913.02 67.7982 1910.11 64.8881 1910.11 61.2982C1910.11 57.7084 1913.02 54.7982 1916.61 54.7982C1920.2 54.7982 1923.11 57.7084 1923.11 61.2982Z" fill="white" stroke="#2B69DD" stroke-width="2"/>
</g>
<defs>
<linearGradient id="paint0_linear_71_2672" x1="-0.0180969" y1="4.98779" x2="-0.0180969" y2="407" gradientUnits="userSpaceOnUse">
<stop stop-color="#3A96FD"/>
<stop offset="1" stop-color="#2E5BFF" stop-opacity="0.01"/>
</linearGradient>
<clipPath id="clip0_71_2672">
<rect width="1926" height="407" fill="white" transform="translate(-5)"/>
</clipPath>
</defs>
</svg>
