<svg width="472" height="336" viewBox="0 0 472 336" fill="none" xmlns="http://www.w3.org/2000/svg">
<g filter="url(#filter0_d_119_332)">
<path d="M20 24C20 19.5817 23.5817 16 28 16H444C448.418 16 452 19.5817 452 24V304C452 308.418 448.418 312 444 312H28C23.5817 312 20 308.418 20 304V24Z" fill="#F8DB73"/>
</g>
<g opacity="0.3">
<path d="M341.521 136C371.394 136 391.362 111.403 391.362 80C391.362 48.2873 371.394 24 341.841 24C312.128 24 292 48.5967 292 80C292 111.713 311.649 136 341.521 136ZM341.841 114.497C326.985 114.497 317.24 99.8011 317.24 80C317.24 59.8895 326.825 45.5028 341.521 45.5028C356.218 45.5028 366.122 60.3536 366.122 80C366.122 99.9558 356.697 114.497 341.841 114.497Z" fill="white"/>
<path d="M427.719 134.144H452V25.0829H435.227L403.118 34.3646L408.229 53.8563L427.719 49.2155V134.144Z" fill="white"/>
</g>
<defs>
<filter id="filter0_d_119_332" x="0" y="0" width="472" height="336" filterUnits="userSpaceOnUse" color-interpolation-filters="sRGB">
<feFlood flood-opacity="0" result="BackgroundImageFix"/>
<feColorMatrix in="SourceAlpha" type="matrix" values="0 0 0 0 0 0 0 0 0 0 0 0 0 0 0 0 0 0 127 0" result="hardAlpha"/>
<feOffset dy="4"/>
<feGaussianBlur stdDeviation="10"/>
<feColorMatrix type="matrix" values="0 0 0 0 0.645833 0 0 0 0 0.645833 0 0 0 0 0.645833 0 0 0 0.25 0"/>
<feBlend mode="normal" in2="BackgroundImageFix" result="effect1_dropShadow_119_332"/>
<feBlend mode="normal" in="SourceGraphic" in2="effect1_dropShadow_119_332" result="shape"/>
</filter>
</defs>
</svg>
