<svg width="432" height="296" viewBox="0 0 432 296" fill="none" xmlns="http://www.w3.org/2000/svg">
<path d="M0 8C0 3.58172 3.58172 0 8 0H424C428.418 0 432 3.58172 432 8V288C432 292.418 428.418 296 424 296H8C3.58172 296 0 292.418 0 288V8Z" fill="white"/>
<g opacity="0.3">
<path d="M288.402 120C317.599 120 337.116 95.4033 337.116 64C337.116 32.2873 317.599 8 288.714 8C259.673 8 240 32.5967 240 64C240 95.7127 259.205 120 288.402 120ZM288.714 98.4972C274.194 98.4972 264.669 83.8011 264.669 64C264.669 43.8895 274.037 29.5028 288.402 29.5028C302.766 29.5028 312.447 44.3536 312.447 64C312.447 83.9558 303.235 98.4972 288.714 98.4972Z" fill="#75ACFE"/>
<path d="M392.654 120C417.011 120 432 104.994 432 84.5746C432 64.1547 417.479 56.4199 402.647 53.9447L430.283 27.8011V9.85635H356.431V30.2762H399.368L373.293 56.2652L377.04 71.4254H387.033C400.461 71.4254 408.424 76.3757 408.424 85.1934C408.424 93.547 402.022 98.6519 392.966 98.6519C381.881 98.6519 374.074 94.011 366.579 85.6575L350.029 101.282C359.397 112.265 372.981 120 392.654 120Z" fill="#75ACFE"/>
</g>
</svg>
